#define archiver_width 16
#define archiver_height 16
static char archiver_bits[] = {
  0xFF, 0x4F, 0x01, 0xE0, 0x01, 0x72, 0x01, 0x3E, 0x01, 0x9E, 0x01, 0x8E, 
  0x01, 0xBE, 0x01, 0x80, 0x01, 0x80, 0x79, 0x80, 0x79, 0x80, 0x79, 0x80, 
  0x7C, 0x80, 0x0E, 0x80, 0x07, 0x80, 0xF2, 0xFF, };
